<svg height="497.16pt" viewBox="0 0 497.16 497.16" width="497.16pt" xmlns="http://www.w3.org/2000/svg" xmlns:xlink="http://www.w3.org/1999/xlink"><linearGradient id="a" gradientUnits="userSpaceOnUse" x1="248.5816" x2="248.5816" y1="497.156" y2="0"><stop offset="0" stop-color="#9f2fff"/><stop offset="1" stop-color="#0bb1d3"/></linearGradient><path d="m497.160156 16v-16h-16c-163.34375 0-269.585937 185.976562-271.886718 253.71875l-24 23.082031-8.113282-8.113281-92.320312 92.320312-50.007813 16.664063-34.832031 104.496094 14.992188 14.992187 104.496093-34.832031 16.664063-50.007813 92.320312-92.320312-8.113281-8.113281 23.082031-24c67.742188-2.300781 253.71875-108.542969 253.71875-271.886719zm-16 0c0 140.945312-146.617187 236.785156-219.953125 253.414062l43.953125-45.710937v.296875h48v-16h-32.894531l30.773437-32h42.121094v-16h-26.746094l23.082032-24h43.664062v-16h-28.28125l1.570313-1.632812c6.183593-6.4375 11.34375-13.742188 15.328125-21.71875 3.070312-6.113282 1.871094-13.472657-2.960938-18.304688-4.839844-4.832031-12.183594-6.039062-18.296875-2.96875-7.984375 3.992188-15.289062 9.152344-21.726562 15.335938l-1.632813 1.570312v-28.28125h-16v43.664062l-32 30.777344v-34.441406h-16v49.824219l-32 30.777343v-24.601562h-16v39.976562l-37.417968 35.976563c16.632812-73.335937 112.472656-219.953125 253.417968-219.953125zm-374.328125 433.671875-72.046875 24.015625 28.09375-28.09375c3.121094 1.503906 6.585938 2.40625 10.28125 2.40625 13.230469 0 24-10.769531 24-24s-10.769531-24-24-24c-13.230468 0-24 10.769531-24 24 0 3.695312.902344 7.160156 2.40625 10.28125l-28.09375 28.09375 24.015625-72.046875 39.511719-13.167969 33 33zm-41.671875-25.671875c0-4.414062 3.582032-8 8-8 4.414063 0 8 3.585938 8 8s-3.585937 8-8 8c-4.417968 0-8-3.585938-8-8zm64-27.3125-28.6875-28.6875 76.6875-76.6875 28.6875 28.6875zm67.425782-108.574219 193.300781-185.875c5.265625-5.0625 11.25-9.285156 17.585937-12.757812-3.265625 6.535156-7.496094 12.527343-12.550781 17.792969l-185.875 193.300781zm0 0" fill="url(#a)"/></svg>