<svg height="512" viewBox="0 0 64 64" width="512" xmlns="http://www.w3.org/2000/svg"><path d="m32.253 22.672 7.67 4.383-7.72 4.457-7.67-4.383z" fill="#f5f6f8"/><path d="m32.253 22.672 7.67 4.383-7.72 4.457-7.67-4.383z" fill="#f5f6f8"/><path d="m25.405 26.606 6.849-3.955 6.797 3.885-6.849 3.954z" fill="#a1a1a0"/><path d="m39.923 27.055.087 8.908-7.718 4.458-.089-8.909z" fill="#e3e4e5"/><path d="m39.798 26.93.087 8.908-7.719 4.457-.088-8.909z" fill="#f5f6f8"/><path d="m39.923 27.055.087 8.908-7.718 4.458-.089-8.909z" fill="#b3b2b3"/><path d="m32.203 31.512.089 8.909-7.67-4.384-.089-8.908z" fill="#a1a1a0"/><path d="m32.328 31.386.089 8.909-7.67-4.384-.089-8.908z" fill="#f5f6f8"/><path d="m32.203 31.512.089 8.909-7.67-4.384-.089-8.908z" fill="#b3b2b3"/><path d="m22.096 28.657 7.669 4.383-7.72 4.457-7.669-4.383z" fill="#f5f6f8"/><path d="m22.096 28.657 7.669 4.383-7.72 4.457-7.669-4.383z" fill="#f5f6f8"/><path d="m15.248 32.592 6.849-3.955 6.796 3.884-6.849 3.955z" fill="#a1a1a0"/><path d="m29.765 33.04.089 8.908-7.72 4.458-.089-8.909z" fill="#e3e4e5"/><path d="m29.64 32.915.089 8.908-7.72 4.458-.089-8.909z" fill="#f5f6f8"/><path d="m29.765 33.04.089 8.908-7.72 4.458-.089-8.909z" fill="#b3b2b3"/><path d="m22.045 37.497.089 8.909-7.669-4.384-.089-8.908z" fill="#c6c6c6"/><path d="m22.17 37.372.089 8.909-7.669-4.384-.089-8.908z" fill="#f5f6f8"/><path d="m22.045 37.497.089 8.909-7.669-4.384-.089-8.908z" fill="#b3b2b3"/><path d="m11.938 34.643 7.669 4.383-7.718 4.456-7.67-4.381z" fill="#f5f6f8"/><path d="m11.938 34.643 7.669 4.383-7.718 4.456-7.67-4.381z" fill="#f5f6f8"/><path d="m5.09 38.577 6.849-3.954 6.797 3.884-6.849 3.955z" fill="#a1a1a0"/><path d="m19.607 39.026.088 8.908-7.718 4.458-.088-8.91z" fill="#e3e4e5"/><path d="m19.482 38.901.088 8.908-7.718 4.458-.089-8.91z" fill="#f5f6f8"/><path d="m19.607 39.026.088 8.908-7.718 4.458-.088-8.91z" fill="#b3b2b3"/><path d="m11.889 43.482.088 8.91-7.67-4.384-.088-8.907z" fill="#c6c6c6"/><path d="m12.014 43.357.088 8.91-7.67-4.384-.088-8.908z" fill="#f5f6f8"/><path d="m11.889 43.482.088 8.91-7.67-4.384-.088-8.907z" fill="#c6c6c6"/><path d="m42.139 28.476 7.669 4.382-7.72 4.458-7.67-4.383z" fill="#f5f6f8"/><path d="m42.139 28.476 7.669 4.382-7.72 4.458-7.67-4.383z" fill="#f5f6f8"/><path d="m35.29 32.41 6.851-3.954 6.796 3.885-6.851 3.954z" fill="#a1a1a0"/><path d="m49.808 32.858.088 8.91-7.719 4.457-.089-8.909z" fill="#e3e4e5"/><path d="m49.683 32.733.087 8.909-7.718 4.458-.089-8.91z" fill="#f5f6f8"/><path d="m49.808 32.858.088 8.91-7.719 4.457-.089-8.909z" fill="#b3b2b3"/><path d="m42.088 37.316.089 8.909-7.67-4.384-.089-8.908z" fill="#c6c6c6"/><path d="m42.213 37.19.089 8.91-7.67-4.384-.089-8.908z" fill="#f5f6f8"/><path d="m42.088 37.316.089 8.909-7.67-4.384-.089-8.908z" fill="#b3b2b3"/><path d="m31.981 34.462 7.669 4.383-7.72 4.456-7.668-4.382z" fill="#f5f6f8"/><path d="m31.981 34.462 7.669 4.383-7.72 4.456-7.668-4.382z" fill="#f5f6f8"/><path d="m25.133 38.396 6.849-3.955 6.796 3.884-6.849 3.955z" fill="#a1a1a0"/><path d="m39.65 38.845.088 8.907-7.718 4.458-.09-8.909z" fill="#e3e4e5"/><path d="m39.524 38.72.089 8.907-7.719 4.458-.089-8.909z" fill="#f5f6f8"/><path d="m39.65 38.845.088 8.907-7.718 4.458-.09-8.909z" fill="#b3b2b3"/><path d="m31.93 43.301.09 8.909-7.669-4.384-.089-8.907z" fill="#c6c6c6"/><path d="m32.055 43.176.09 8.909-7.669-4.384-.089-8.908z" fill="#f5f6f8"/><path d="m31.93 43.301.09 8.909-7.669-4.384-.089-8.907z" fill="#b3b2b3"/><path d="m21.823 40.447 7.67 4.383-7.72 4.457-7.669-4.383z" fill="#f5f6f8"/><path d="m21.823 40.447 7.67 4.383-7.72 4.457-7.669-4.383z" fill="#f5f6f8"/><path d="m14.976 44.381 6.848-3.954 6.798 3.885-6.85 3.954z" fill="#a1a1a0"/><path d="m29.493 44.83.088 8.908-7.719 4.458-.089-8.909z" fill="#b3b2b3"/><path d="m29.368 44.705.088 8.908-7.719 4.458-.089-8.909z" fill="#f5f6f8"/><path d="m29.493 44.83.088 8.908-7.719 4.458-.089-8.909z" fill="#b3b2b3"/><path d="m21.773 49.287.089 8.909-7.67-4.383-.088-8.909z" fill="#c6c6c6"/><path d="m21.898 49.162.089 8.909-7.67-4.384-.088-8.908z" fill="#f5f6f8"/><path d="m21.773 49.287.089 8.909-7.67-4.383-.088-8.909z" fill="#c6c6c6"/><path d="m52.023 34.28 7.669 4.383-7.718 4.458-7.669-4.385z" fill="#f5f6f8"/><path d="m52.023 34.28 7.669 4.383-7.718 4.458-7.669-4.385z" fill="#f5f6f8"/><path d="m45.176 38.215 6.847-3.955 6.798 3.885-6.848 3.954z" fill="#a1a1a0"/><path d="m59.692 38.663.089 8.909-7.719 4.456-.088-8.907z" fill="#e3e4e5"/><path d="m59.567 38.538.089 8.909-7.719 4.456-.088-8.908z" fill="#f5f6f8"/><path d="m59.692 38.663.089 8.909-7.719 4.456-.088-8.907z" fill="#e3e4e5"/><path d="m51.974 43.121.088 8.907-7.67-4.382-.087-8.91z" fill="#c6c6c6"/><path d="m52.099 42.995.088 8.908-7.669-4.383-.088-8.909z" fill="#f5f6f8"/><path d="m51.974 43.121.088 8.907-7.67-4.382-.087-8.91z" fill="#b3b2b3"/><path d="m41.866 40.266 7.67 4.383-7.721 4.457-7.669-4.383z" fill="#f5f6f8"/><path d="m41.866 40.266 7.67 4.383-7.721 4.457-7.669-4.383z" fill="#f5f6f8"/><path d="m35.018 44.2 6.849-3.954 6.797 3.884-6.85 3.955z" fill="#a1a1a0"/><path d="m49.536 44.649.087 8.908-7.719 4.458-.089-8.909z" fill="#e3e4e5"/><path d="m49.41 44.524.088 8.908-7.719 4.457-.089-8.908z" fill="#f5f6f8"/><path d="m49.536 44.649.087 8.908-7.719 4.458-.089-8.909z" fill="#e3e4e5"/><path d="m41.815 49.106.089 8.909-7.669-4.385-.089-8.907z" fill="#c6c6c6"/><path d="m41.941 48.981.088 8.908-7.669-4.384-.089-8.907z" fill="#f5f6f8"/><path d="m41.815 49.106.089 8.909-7.669-4.385-.089-8.907z" fill="#b3b2b3"/><path d="m31.708 46.252 7.67 4.382-7.72 4.458-7.669-4.384z" fill="#f5f6f8"/><path d="m31.708 46.252 7.67 4.382-7.72 4.458-7.669-4.384z" fill="#f5f6f8"/><path d="m24.861 50.186 6.848-3.956 6.797 3.885-6.849 3.955z" fill="#a1a1a0"/><path d="m39.378 50.634.089 8.908L31.747 64l-.089-8.908z" fill="#e3e4e5"/><path d="m39.252 50.509.09 8.908-7.72 4.458-.089-8.908z" fill="#f5f6f8"/><path d="m39.378 50.634.089 8.908L31.747 64l-.089-8.908z" fill="#e3e4e5"/><path d="M31.658 55.092 31.747 64l-7.669-4.384-.089-8.908z" fill="#c6c6c6"/><path d="m31.783 54.967.089 8.908-7.669-4.384-.089-8.908z" fill="#f5f6f8"/><path d="M31.658 55.092 31.747 64l-7.669-4.384-.089-8.908z" fill="#c6c6c6"/><path d="m32.253 11.336 7.67 4.383-7.72 4.458-7.67-4.385z" fill="#f5f6f8"/><path d="m32.253 11.336 7.67 4.383-7.72 4.458-7.67-4.385z" fill="#f5f6f8"/><path d="m25.405 15.271 6.849-3.956 6.797 3.886-6.849 3.954z" fill="#a1a1a0"/><path d="m39.923 15.719.087 8.909-7.718 4.456-.089-8.907z" fill="#e3e4e5"/><path d="m39.798 15.594.087 8.908-7.719 4.457-.088-8.908z" fill="#f5f6f8"/><path d="m39.923 15.719.087 8.909-7.718 4.456-.089-8.907z" fill="#b3b2b3"/><path d="m32.203 20.177.089 8.907-7.67-4.382-.089-8.91z" fill="#a1a1a0"/><path d="m32.328 20.051.089 8.908-7.67-4.382-.089-8.909z" fill="#f5f6f8"/><path d="m32.203 20.177.089 8.907-7.67-4.382-.089-8.91z" fill="#b3b2b3"/><path d="m22.096 17.322 7.669 4.383-7.72 4.458-7.669-4.384z" fill="#f5f6f8"/><path d="m22.096 17.322 7.669 4.383-7.72 4.458-7.669-4.384z" fill="#f5f6f8"/><path d="m15.248 21.256 6.849-3.954 6.796 3.883-6.849 3.956z" fill="#a1a1a0"/><path d="m29.765 21.705.089 8.909-7.72 4.456-.089-8.907z" fill="#e3e4e5"/><path d="m29.64 21.579.089 8.909-7.72 4.457-.089-8.908z" fill="#f5f6f8"/><path d="m29.765 21.705.089 8.909-7.72 4.456-.089-8.907z" fill="#b3b2b3"/><path d="m22.045 26.163.089 8.907-7.669-4.383-.089-8.908z" fill="#c6c6c6"/><path d="m22.17 26.037.089 8.908-7.669-4.384-.089-8.907z" fill="#f5f6f8"/><path d="m22.045 26.163.089 8.907-7.669-4.383-.089-8.908z" fill="#b3b2b3"/><path d="m11.938 23.308 7.669 4.382-7.718 4.458-7.67-4.384z" fill="#f5f6f8"/><path d="m11.938 23.308 7.669 4.382-7.718 4.458-7.67-4.384z" fill="#f5f6f8"/><path d="m5.09 27.241 6.849-3.954 6.797 3.885-6.849 3.954z" fill="#a1a1a0"/><path d="m19.607 27.69.088 8.91-7.718 4.456-.088-8.908z" fill="#e3e4e5"/><path d="m19.482 27.565.088 8.908-7.718 4.458-.089-8.909z" fill="#f5f6f8"/><path d="m19.607 27.69.088 8.91-7.718 4.456-.088-8.908z" fill="#b3b2b3"/><path d="m11.889 32.148.088 8.908-7.67-4.384-.088-8.908z" fill="#c6c6c6"/><path d="m12.014 32.022.088 8.909-7.67-4.384-.088-8.908z" fill="#f5f6f8"/><path d="m11.889 32.148.088 8.908-7.67-4.384-.088-8.908z" fill="#c6c6c6"/><path d="m42.139 17.141 7.669 4.383-7.72 4.456-7.67-4.383z" fill="#f5f6f8"/><path d="m42.139 17.141 7.669 4.383-7.72 4.456-7.67-4.383z" fill="#f5f6f8"/><path d="m35.29 21.074 6.851-3.954 6.796 3.884-6.851 3.955z" fill="#a1a1a0"/><path d="m49.808 21.524.088 8.908-7.719 4.457-.089-8.909z" fill="#e3e4e5"/><path d="m49.683 21.399.087 8.908-7.718 4.457-.089-8.909z" fill="#f5f6f8"/><path d="m49.808 21.524.088 8.908-7.719 4.457-.089-8.909z" fill="#b3b2b3"/><path d="m42.088 25.98.089 8.909-7.67-4.385-.089-8.907z" fill="#c6c6c6"/><path d="m42.213 25.855.089 8.909-7.67-4.385-.089-8.907z" fill="#f5f6f8"/><path d="m42.088 25.98.089 8.909-7.67-4.385-.089-8.907z" fill="#b3b2b3"/><path d="m31.981 23.126 7.669 4.383-7.72 4.458-7.668-4.384z" fill="#f5f6f8"/><path d="m31.981 23.126 7.669 4.383-7.72 4.458-7.668-4.384z" fill="#f5f6f8"/><path d="m25.133 27.06 6.849-3.955 6.796 3.885-6.849 3.955z" fill="#a1a1a0"/><path d="m39.65 27.509.088 8.909-7.718 4.456-.09-8.907z" fill="#e3e4e5"/><path d="m39.524 27.384.089 8.908-7.719 4.457-.089-8.908z" fill="#f5f6f8"/><path d="m39.65 27.509.088 8.909-7.718 4.456-.09-8.907z" fill="#b3b2b3"/><path d="m31.93 31.967.09 8.907-7.669-4.384-.089-8.907z" fill="#c6c6c6"/><path d="m32.055 31.841.09 8.908-7.669-4.383-.089-8.909z" fill="#f5f6f8"/><path d="m31.93 31.967.09 8.907-7.669-4.384-.089-8.907z" fill="#b3b2b3"/><path d="m21.823 29.111 7.67 4.384-7.72 4.457-7.669-4.384z" fill="#f5f6f8"/><path d="m21.823 29.111 7.67 4.384-7.72 4.457-7.669-4.384z" fill="#f5f6f8"/><path d="m14.976 33.046 6.848-3.955 6.798 3.885-6.85 3.955z" fill="#a1a1a0"/><path d="m29.493 33.495.088 8.908-7.719 4.457-.089-8.908z" fill="#b3b2b3"/><path d="m29.368 33.37.088 8.908-7.719 4.456-.089-8.907z" fill="#f5f6f8"/><path d="m29.493 33.495.088 8.908-7.719 4.457-.089-8.908z" fill="#b3b2b3"/><path d="m21.773 37.952.089 8.908-7.67-4.383-.088-8.909z" fill="#c6c6c6"/><path d="m21.898 37.827.089 8.907-7.67-4.383-.088-8.908z" fill="#f5f6f8"/><path d="m21.773 37.952.089 8.908-7.67-4.383-.088-8.909z" fill="#c6c6c6"/><path d="m52.023 22.945 7.669 4.383-7.718 4.456-7.669-4.383z" fill="#f5f6f8"/><path d="m52.023 22.945 7.669 4.383-7.718 4.456-7.669-4.383z" fill="#f5f6f8"/><path d="m45.176 26.879 6.847-3.955 6.798 3.885-6.848 3.954z" fill="#a1a1a0"/><path d="m59.692 27.328.089 8.908-7.719 4.456-.088-8.908z" fill="#e3e4e5"/><path d="m59.567 27.203.089 8.907-7.719 4.457-.088-8.908z" fill="#f5f6f8"/><path d="m59.692 27.328.089 8.908-7.719 4.456-.088-8.908z" fill="#e3e4e5"/><path d="m51.974 31.784.088 8.908-7.67-4.382-.087-8.909z" fill="#c6c6c6"/><path d="m52.099 31.659.088 8.908-7.669-4.383-.088-8.909z" fill="#f5f6f8"/><path d="m51.974 31.784.088 8.908-7.67-4.382-.087-8.909z" fill="#b3b2b3"/><path d="m41.866 28.93 7.67 4.383-7.721 4.458-7.669-4.383z" fill="#f5f6f8"/><path d="m41.866 28.93 7.67 4.383-7.721 4.458-7.669-4.383z" fill="#f5f6f8"/><path d="m35.018 32.864 6.849-3.954 6.797 3.884-6.85 3.955z" fill="#a1a1a0"/><path d="m49.536 33.313.087 8.909-7.719 4.456-.089-8.907z" fill="#e3e4e5"/><path d="m49.41 33.188.088 8.909-7.719 4.456-.089-8.907z" fill="#f5f6f8"/><path d="m49.536 33.313.087 8.909-7.719 4.456-.089-8.907z" fill="#e3e4e5"/><path d="m41.815 37.771.089 8.907-7.669-4.382-.089-8.908z" fill="#c6c6c6"/><path d="m41.941 37.646.088 8.907-7.669-4.382-.089-8.908z" fill="#f5f6f8"/><path d="m41.815 37.771.089 8.907-7.669-4.382-.089-8.908z" fill="#b3b2b3"/><path d="m31.708 34.915 7.67 4.385-7.72 4.456-7.669-4.384z" fill="#f5f6f8"/><path d="m31.708 34.915 7.67 4.385-7.72 4.456-7.669-4.384z" fill="#f5f6f8"/><path d="m24.861 38.85 6.848-3.954 6.797 3.884-6.849 3.954z" fill="#a1a1a0"/><path d="m39.378 39.3.089 8.907-7.72 4.458-.089-8.909z" fill="#e3e4e5"/><path d="m39.252 39.174.09 8.908-7.72 4.457-.089-8.908z" fill="#f5f6f8"/><path d="m39.378 39.3.089 8.907-7.72 4.458-.089-8.909z" fill="#e3e4e5"/><path d="m31.658 43.756.089 8.909-7.669-4.384-.089-8.909z" fill="#c6c6c6"/><path d="m31.783 43.631.089 8.908-7.669-4.383-.089-8.909z" fill="#f5f6f8"/><path d="m31.658 43.756.089 8.909-7.669-4.384-.089-8.909z" fill="#c6c6c6"/><path d="m32.253 0 7.67 4.384-7.72 4.457-7.67-4.383z" fill="#f5f6f8"/><path d="m39.923 4.384.087 8.908-7.718 4.457-.089-8.908z" fill="#e3e4e5"/><path d="m39.798 4.258.087 8.909-7.719 4.456-.088-8.908z" fill="#f5f6f8"/><path d="m39.923 4.384.087 8.908-7.718 4.457-.089-8.908z" fill="#b3b2b3"/><path d="m32.203 8.841.089 8.908-7.67-4.383-.089-8.908z" fill="#a1a1a0"/><path d="m32.328 8.715.089 8.908-7.67-4.382-.089-8.909z" fill="#f5f6f8"/><path d="m32.203 8.841.089 8.908-7.67-4.383-.089-8.908z" fill="#a1a1a0"/><path d="m22.096 5.986 7.669 4.384-7.72 4.456-7.669-4.382z" fill="#f5f6f8"/><path d="m29.765 10.37.089 8.907-7.72 4.457-.089-8.908z" fill="#e3e4e5"/><path d="m29.64 10.245.089 8.907-7.72 4.457-.089-8.908z" fill="#f5f6f8"/><path d="m29.765 10.37.089 8.907-7.72 4.457-.089-8.908z" fill="#b3b2b3"/><path d="m22.045 14.826.089 8.908-7.669-4.382-.089-8.908z" fill="#c6c6c6"/><path d="m22.17 14.701.089 8.908-7.669-4.382-.089-8.909z" fill="#f5f6f8"/><path d="m22.045 14.826.089 8.908-7.669-4.382-.089-8.908z" fill="#a1a1a0"/><path d="m11.938 11.972 7.669 4.383-7.718 4.457-7.67-4.384z" fill="#f5f6f8"/><path d="m19.607 16.355.088 8.908-7.718 4.457-.088-8.908z" fill="#e3e4e5"/><path d="m19.482 16.23.088 8.908-7.718 4.457-.089-8.908z" fill="#f5f6f8"/><path d="m19.607 16.355.088 8.908-7.718 4.457-.088-8.908z" fill="#b3b2b3"/><path d="m11.889 20.812.088 8.908-7.67-4.384-.088-8.908z" fill="#c6c6c6"/><path d="m12.014 20.687.088 8.908-7.67-4.384-.088-8.908z" fill="#f5f6f8"/><path d="m11.889 20.812.088 8.908-7.67-4.384-.088-8.908z" fill="#c6c6c6"/><path d="m42.139 5.805 7.669 4.383-7.72 4.457-7.67-4.383z" fill="#f5f6f8"/><path d="m49.808 10.188.088 8.908-7.719 4.456-.089-8.907z" fill="#e3e4e5"/><path d="m49.683 10.063.087 8.908-7.718 4.456-.089-8.907z" fill="#f5f6f8"/><path d="m49.808 10.188.088 8.908-7.719 4.456-.089-8.907z" fill="#b3b2b3"/><path d="m42.088 14.645.089 8.907-7.67-4.382-.089-8.908z" fill="#c6c6c6"/><path d="m42.213 14.52.089 8.907-7.67-4.383-.089-8.907z" fill="#f5f6f8"/><path d="m42.088 14.645.089 8.907-7.67-4.382-.089-8.908z" fill="#a1a1a0"/><path d="m31.981 11.79 7.669 4.384-7.72 4.456-7.668-4.382z" fill="#f5f6f8"/><path d="m39.65 16.174.088 8.908-7.718 4.456-.09-8.908z" fill="#e3e4e5"/><path d="m39.524 16.048.089 8.909-7.719 4.456-.089-8.908z" fill="#f5f6f8"/><path d="m39.65 16.174.088 8.908-7.718 4.456-.09-8.908z" fill="#b3b2b3"/><path d="m31.93 20.63.09 8.908-7.669-4.383-.089-8.907z" fill="#c6c6c6"/><path d="m32.055 20.505.09 8.908-7.669-4.383-.089-8.907z" fill="#f5f6f8"/><path d="m31.93 20.63.09 8.908-7.669-4.383-.089-8.907z" fill="#a1a1a0"/><path d="m21.823 17.775 7.67 4.384-7.72 4.457-7.669-4.383z" fill="#f5f6f8"/><path d="m29.493 22.159.088 8.908-7.719 4.456-.089-8.907z" fill="#b3b2b3"/><path d="m29.368 22.034.088 8.908-7.719 4.456-.089-8.907z" fill="#f5f6f8"/><path d="m29.493 22.159.088 8.908-7.719 4.456-.089-8.907z" fill="#b3b2b3"/><path d="m21.773 26.616.089 8.907-7.67-4.381-.088-8.909z" fill="#c6c6c6"/><path d="m21.898 26.491.089 8.907-7.67-4.382-.088-8.908z" fill="#f5f6f8"/><path d="m21.773 26.616.089 8.907-7.67-4.381-.088-8.909z" fill="#c6c6c6"/><path d="m52.023 11.609 7.669 4.384-7.718 4.457-7.669-4.384z" fill="#f5f6f8"/><path d="m59.692 15.993.089 8.907-7.719 4.456-.088-8.906z" fill="#e3e4e5"/><path d="m59.567 15.868.089 8.906-7.719 4.457-.088-8.908z" fill="#f5f6f8"/><path d="m59.692 15.993.089 8.907-7.719 4.456-.088-8.906z" fill="#e3e4e5"/><path d="m51.974 20.45.088 8.906-7.67-4.382-.087-8.908z" fill="#c6c6c6"/><path d="m52.099 20.323.088 8.908-7.669-4.382-.088-8.908z" fill="#f5f6f8"/><path d="m51.974 20.45.088 8.906-7.67-4.382-.087-8.908z" fill="#b3b2b3"/><path d="m41.866 17.594 7.67 4.384-7.721 4.456-7.669-4.382z" fill="#f5f6f8"/><path d="m49.536 21.978.087 8.908-7.719 4.458-.089-8.91z" fill="#e3e4e5"/><path d="m49.41 21.853.088 8.908-7.719 4.458-.089-8.91z" fill="#f5f6f8"/><path d="m49.536 21.978.087 8.908-7.719 4.458-.089-8.91z" fill="#e3e4e5"/><path d="m41.815 26.434.089 8.91-7.669-4.385-.089-8.907z" fill="#c6c6c6"/><path d="m41.941 26.309.088 8.91-7.669-4.385-.089-8.908z" fill="#f5f6f8"/><path d="m41.815 26.434.089 8.91-7.669-4.385-.089-8.907z" fill="#b3b2b3"/><path d="m31.708 23.58 7.67 4.383-7.72 4.457-7.669-4.383z" fill="#f5f6f8"/><path d="m39.378 27.963.089 8.909-7.72 4.456-.089-8.908z" fill="#e3e4e5"/><path d="m39.252 27.838.09 8.908-7.72 4.457-.089-8.908z" fill="#f5f6f8"/><path d="m39.378 27.963.089 8.909-7.72 4.456-.089-8.908z" fill="#e3e4e5"/><path d="m31.658 32.42.089 8.908-7.669-4.383-.089-8.908z" fill="#c6c6c6"/><path d="m31.783 32.295.089 8.908-7.669-4.383-.089-8.908z" fill="#f5f6f8"/><path d="m31.658 32.42.089 8.908-7.669-4.383-.089-8.908z" fill="#c6c6c6"/></svg>